<?xml version="1.0" encoding="iso-8859-1"?>
<!-- Generator: Adobe Illustrator 19.0.0, SVG Export Plug-In . SVG Version: 6.00 Build 0)  -->
<svg xmlns="http://www.w3.org/2000/svg" xmlns:xlink="http://www.w3.org/1999/xlink" version="1.1" id="Layer_1" x="0px" y="0px" viewBox="0 0 496 496" style="enable-background:new 0 0 496 496;" xml:space="preserve" width="512px" height="512px">
<g>
	<g>
		<g>
			<path d="M496,368V0H0v368h144v16H80c-44.112,0-80,35.888-80,80v32h16v-32c0-32.576,24.48-59.488,56-63.448V416h16v-15.448     c31.52,3.96,56,30.872,56,63.448v32h16v-32c0-26.184-12.704-49.4-32.208-64h240.416C348.704,414.6,336,437.816,336,464v32h16v-32     c0-32.576,24.48-59.488,56-63.448V416h16v-15.448c31.52,3.96,56,30.872,56,63.448v32h16v-32c0-44.112-35.888-80-80-80h-64v-16     H496z M336,384H160v-16h176V384z M16,352V16h464v336H16z" fill="#303f9f"/>
			<path d="M32,336h432V32H32V336z M48,304h16v-16H48v-16h16v-16H48v-16h16v-16H48v-16h16v-16H48v-16h16v-16H48v-16h16v-16H48v-16     h16V96H48V80h16V64H48V48h400v16h-16v16h16v16h-16v16h16v16h-16v16h16v16h-16v16h16v16h-16v16h16v16h-16v16h16v16h-16v16h16v16     h-16v16h16v16H48V304z" fill="#303f9f"/>
			<path d="M80,432c-17.648,0-32,14.352-32,32s14.352,32,32,32s32-14.352,32-32S97.648,432,80,432z M80,480c-8.824,0-16-7.176-16-16     c0-8.824,7.176-16,16-16c8.816,0,16,7.176,16,16C96,472.824,88.816,480,80,480z" fill="#303f9f"/>
			<path d="M416,432c-17.648,0-32,14.352-32,32s14.352,32,32,32s32-14.352,32-32S433.648,432,416,432z M416,480     c-8.824,0-16-7.176-16-16c0-8.824,7.176-16,16-16c8.816,0,16,7.176,16,16C432,472.824,424.816,480,416,480z" fill="#303f9f"/>
			
				<rect x="239.999" y="94.03" transform="matrix(0.9702 0.2423 -0.2423 0.9702 46.1569 -55.3209)" width="15.992" height="131.936" fill="#303f9f"/>
			<polygon points="297.6,100.8 342,160 297.6,219.2 310.4,228.8 362,160 310.4,91.2    " fill="#303f9f"/>
			<polygon points="154,160 198.4,100.8 185.6,91.2 134,160 185.6,228.8 198.4,219.2    " fill="#303f9f"/>
			<path d="M248,240c-13.232,0-24,10.768-24,24s10.768,24,24,24s24-10.768,24-24S261.232,240,248,240z M248,272     c-4.416,0-8-3.584-8-8c0-4.416,3.584-8,8-8s8,3.584,8,8C256,268.416,252.416,272,248,272z" fill="#303f9f"/>
			<rect x="288" y="256" width="16" height="16" fill="#303f9f"/>
			<rect x="320" y="256" width="16" height="16" fill="#303f9f"/>
			<rect x="192" y="256" width="16" height="16" fill="#303f9f"/>
			<rect x="160" y="256" width="16" height="16" fill="#303f9f"/>
		</g>
	</g>
</g>
<g>
</g>
<g>
</g>
<g>
</g>
<g>
</g>
<g>
</g>
<g>
</g>
<g>
</g>
<g>
</g>
<g>
</g>
<g>
</g>
<g>
</g>
<g>
</g>
<g>
</g>
<g>
</g>
<g>
</g>
</svg>
