<?xml version="1.0" encoding="iso-8859-1"?>
<!-- Generator: Adobe Illustrator 19.0.0, SVG Export Plug-In . SVG Version: 6.00 Build 0)  -->
<svg xmlns="http://www.w3.org/2000/svg" xmlns:xlink="http://www.w3.org/1999/xlink" version="1.1" id="Layer_1" x="0px" y="0px" viewBox="0 0 496 496" style="enable-background:new 0 0 496 496;" xml:space="preserve" width="512px" height="512px">
<g>
	<g>
		<g>
			<path d="M328,432v-16h16v-48h-16v-16h32v-72h-66.552l92.752-80.384c8.768-7.608,13.8-18.624,13.8-30.224V137.4l7.616-6.528     c5.328-4.576,8.384-11.216,8.384-18.232V96V80V56c0-22.056-17.944-40-40-40H192v16h-32V0h-56h-8H38.112L0,19.056V48h64v16H0     v28.944L38.112,112H96h8h56V80h32v16h115.064L171.976,216.864c-24.952,4.408-43.976,26.2-43.976,52.392     c0,14.224,5.536,27.592,15.6,37.656L188.688,352H216v16h-16v48h16v16h-88v64h368v-64H328z M96,96H41.888L16,83.056V80h64V32H16     v-3.056L41.888,16H96V96z M144,96h-32V16h32V96z M192,64h-32V48h32V64z M328,400h-16v-16h16V400z M312,416v16h-80v-16H312z      M248,400v-16h16v16H248z M280,400v-16h16v16H280z M232,368v-16h80v16H232z M384,169.392c0,6.96-3.016,13.568-8.28,18.136     L269.008,280h-1.696l-15.552-15.552L384,151.112V169.392z M224,80h-16V32h16V80z M240,80V32h136c13.232,0,24,10.768,24,24v24     h-75.056H240z M331.056,96H400v16.64c0,2.344-1.016,4.552-2.792,6.08L240.424,253.112l-21.504-21.504     c-6.752-6.752-15.016-11.416-24.008-13.784L331.056,96z M195.312,336l-40.4-40.4c-7.04-7.04-10.912-16.392-10.912-26.344     C144,248.712,160.712,232,181.256,232c9.952,0,19.304,3.872,26.344,10.912L260.688,296H344v40H195.312z M216,384h16v16h-16V384z      M480,480h-16v-16h-16v16h-16v-16h-16v16h-16v-16h-16v16h-16v-16h-16v16h-16v-16h-16v16h-16v-16h-16v16h-16v-16h-16v16h-16v-16     h-16v16h-16v-16h-16v16h-16v-16h-16v16h-16v-32h336V480z" fill="#303F9F"/>
			<path d="M180,248c-11.032,0-20,8.968-20,20c0,11.032,8.968,20,20,20s20-8.968,20-20C200,256.968,191.032,248,180,248z M180,272     c-2.2,0-4-1.8-4-4s1.8-4,4-4s4,1.8,4,4S182.2,272,180,272z" fill="#303F9F"/>
		</g>
	</g>
</g>
<g>
</g>
<g>
</g>
<g>
</g>
<g>
</g>
<g>
</g>
<g>
</g>
<g>
</g>
<g>
</g>
<g>
</g>
<g>
</g>
<g>
</g>
<g>
</g>
<g>
</g>
<g>
</g>
<g>
</g>
</svg>
